<?xml version="1.0" encoding="iso-8859-1"?>
<!-- Generator: Adobe Illustrator 19.0.0, SVG Export Plug-In . SVG Version: 6.00 Build 0)  -->
<svg version="1.1" id="Layer_1" xmlns="http://www.w3.org/2000/svg" xmlns:xlink="http://www.w3.org/1999/xlink" x="0px" y="0px"
	 viewBox="0 0 512 512" style="enable-background:new 0 0 512 512;" xml:space="preserve">
<circle style="fill:#FC6F58;" cx="256" cy="256" r="256"/>
<path style="fill:#F1543F;" d="M512,256c0-3.093-0.074-6.168-0.183-9.233l-99.373-99.373l-154.107,145.42L149.98,184.458
	l-50.424,19.825l122.639,122.639l-3.87,3.651l-104.546,44.377l136.985,136.983c1.743,0.036,3.486,0.067,5.237,0.067
	C397.384,512,512,397.384,512,256z"/>
<rect x="113.778" y="175.838" style="fill:#FFD15D;" width="284.444" height="199.111"/>
<g>
	<rect x="255.431" y="175.838" style="fill:#F9B54C;" width="142.791" height="199.111"/>
	<rect x="99.556" y="147.394" style="fill:#F9B54C;" width="312.889" height="56.889"/>
</g>
<rect x="255.431" y="147.394" style="fill:#F4A200;" width="157.013" height="56.889"/>
<path style="fill:#B97850;" d="M298.667,256h-85.333c-7.854,0-14.222-6.368-14.222-14.222l0,0c0-7.854,6.368-14.222,14.222-14.222
	h85.333c7.854,0,14.222,6.368,14.222,14.222l0,0C312.889,249.632,306.521,256,298.667,256z"/>
<path style="fill:#935635;" d="M298.667,227.556h-43.241V256h43.241c7.854,0,14.222-6.368,14.222-14.222
	S306.521,227.556,298.667,227.556z"/>
<g>
</g>
<g>
</g>
<g>
</g>
<g>
</g>
<g>
</g>
<g>
</g>
<g>
</g>
<g>
</g>
<g>
</g>
<g>
</g>
<g>
</g>
<g>
</g>
<g>
</g>
<g>
</g>
<g>
</g>
</svg>
