<?xml version="1.0" encoding="iso-8859-1"?>
<!-- Generator: Adobe Illustrator 19.0.0, SVG Export Plug-In . SVG Version: 6.00 Build 0)  -->
<svg version="1.1" id="Layer_1" xmlns="http://www.w3.org/2000/svg" xmlns:xlink="http://www.w3.org/1999/xlink" x="0px" y="0px"
	 viewBox="0 0 512 512" style="enable-background:new 0 0 512 512;" xml:space="preserve">
<circle style="fill:#F1543F;" cx="256" cy="256" r="256"/>
<path style="fill:#D83E20;" d="M511.928,261.773L405.249,155.095L228.993,270.365L89.326,351.411l160.509,160.509
	c2.05,0.048,4.103,0.078,6.165,0.078C395.455,512,508.856,400.491,511.928,261.773z"/>
<path style="fill:#FFD15D;" d="M393.044,150.164H228.63c-9.73,0-17.617,7.887-17.617,17.617v95.187
	c0,9.73,7.887,17.617,17.617,17.617h95.446l23.23,31.556l23.23-31.556h22.509c9.73,0,17.617-7.887,17.617-17.617v-95.187
	C410.658,158.051,402.772,150.164,393.044,150.164z"/>
<path style="fill:#F9B54C;" d="M393.044,150.164h-81.303v130.419h12.333l23.23,31.556l23.23-31.556h22.509
	c9.73,0,17.617-7.887,17.617-17.617v-95.187C410.658,158.051,402.772,150.164,393.044,150.164z"/>
<path style="fill:#F4E3C3;" d="M267.364,227.443H102.95c-9.73,0-17.617,7.887-17.617,17.617v95.187
	c0,9.73,7.887,17.617,17.617,17.617h95.446l23.23,31.556l23.23-31.556h22.509c9.73,0,17.617-7.887,17.617-17.617V245.06
	C284.981,235.33,277.094,227.443,267.364,227.443z"/>
<path style="fill:#FED8B2;" d="M267.364,227.443h-95.26v130.419h26.29l23.23,31.556l23.23-31.556h22.509
	c9.73,0,17.617-7.887,17.617-17.617v-95.187C284.981,235.33,277.094,227.443,267.364,227.443z"/>
<g>
</g>
<g>
</g>
<g>
</g>
<g>
</g>
<g>
</g>
<g>
</g>
<g>
</g>
<g>
</g>
<g>
</g>
<g>
</g>
<g>
</g>
<g>
</g>
<g>
</g>
<g>
</g>
<g>
</g>
</svg>
