<?xml version="1.0" encoding="iso-8859-1"?>
<!-- Generator: Adobe Illustrator 19.0.0, SVG Export Plug-In . SVG Version: 6.00 Build 0)  -->
<svg version="1.1" id="Layer_1" xmlns="http://www.w3.org/2000/svg" xmlns:xlink="http://www.w3.org/1999/xlink" x="0px" y="0px"
	 viewBox="0 0 512 512" style="enable-background:new 0 0 512 512;" xml:space="preserve">
<circle style="fill:#B5F1F4;" cx="256" cy="256" r="256"/>
<path style="fill:#84DBFF;" d="M512,256c0-11.736-0.807-23.281-2.336-34.599L398.222,109.959l-105.353,71.718l-93.758-93.758
	l-5.172,219.798l0.057,0.057l-23.33,119.755l84.461,84.461c0.291,0,0.581,0.01,0.872,0.01C397.384,512,512,397.384,512,256z"/>
<rect x="170.667" y="87.919" style="fill:#734B46;" width="28.444" height="339.609"/>
<polygon style="fill:#FC6F58;" points="398.222,257.72 170.667,257.72 170.667,109.959 398.222,109.959 341.333,183.841 "/>
<polygon style="fill:#F1543F;" points="341.964,183.022 170.667,183.022 170.667,257.722 398.222,257.722 341.333,183.841 "/>
<g>
</g>
<g>
</g>
<g>
</g>
<g>
</g>
<g>
</g>
<g>
</g>
<g>
</g>
<g>
</g>
<g>
</g>
<g>
</g>
<g>
</g>
<g>
</g>
<g>
</g>
<g>
</g>
<g>
</g>
</svg>
