<?xml version="1.0" encoding="iso-8859-1"?>
<!-- Generator: Adobe Illustrator 19.0.0, SVG Export Plug-In . SVG Version: 6.00 Build 0)  -->
<svg version="1.1" id="Layer_1" xmlns="http://www.w3.org/2000/svg" xmlns:xlink="http://www.w3.org/1999/xlink" x="0px" y="0px"
	 viewBox="0 0 512 512" style="enable-background:new 0 0 512 512;" xml:space="preserve">
<circle style="fill:#B5F1F4;" cx="256" cy="256" r="256"/>
<path style="fill:#84DBFF;" d="M263.483,511.883c118.001-3.387,215.993-86.621,241.84-197.572l-85.461-85.461l-30.068,36.226
	l-128.64-128.64l-6.447,64.255l0,0L93.872,342.273L263.483,511.883z"/>
<path style="fill:#2C9984;" d="M256,235.313c-4.284,0-7.758-3.474-7.758-7.758v-85.333c0-4.284,3.474-7.758,7.758-7.758
	c4.284,0,7.758,3.474,7.758,7.758v85.333C263.758,231.839,260.284,235.313,256,235.313z"/>
<path style="fill:#0B756F;" d="M256.288,134.494v100.79c4.148-0.155,7.47-3.543,7.47-7.728v-85.333
	C263.758,138.037,260.436,134.649,256.288,134.494z"/>
<path style="fill:#324A5E;" d="M240.805,297.37c-6.391,42.053-43.473,74.023-87.685,72.344
	c-44.229-1.679-80.265-37.717-81.946-81.946c-1.848-48.642,37.038-88.657,85.27-88.657h197.706
	c46.795,0,85.944,37.086,86.726,83.875c0.798,47.795-37.707,86.792-85.321,86.792c-42.68,0-78.041-31.332-84.337-72.251
	c-1.157-7.521-7.608-13.083-15.217-13.083l0,0C248.451,284.444,241.94,289.906,240.805,297.37z"/>
<path style="fill:#2B3B4E;" d="M354.151,199.111h-97.863v85.347c7.483,0.138,13.788,5.644,14.931,13.069
	c6.296,40.917,41.656,72.251,84.337,72.251c47.614,0,86.119-38.996,85.321-86.792C440.096,236.197,400.946,199.111,354.151,199.111z
	"/>
<g>
	<circle style="fill:#FD8469;" cx="362.882" cy="256" r="14.222"/>
	<circle style="fill:#FD8469;" cx="362.882" cy="312.889" r="14.222"/>
	<circle style="fill:#FD8469;" cx="391.327" cy="284.444" r="14.222"/>
	<circle style="fill:#FD8469;" cx="334.438" cy="284.444" r="14.222"/>
	<path style="fill:#FD8469;" d="M178.855,269.791H167.65v-11.205c0-6.189-5.017-11.205-11.205-11.205s-11.205,5.017-11.205,11.205
		v11.205h-11.205c-6.189,0-11.205,5.017-11.205,11.205l0,0c0,6.189,5.017,11.205,11.205,11.205h11.205v11.205
		c0,6.189,5.017,11.205,11.205,11.205s11.205-5.017,11.205-11.205v-11.205h11.205c6.189,0,11.205-5.017,11.205-11.205
		C190.061,274.808,185.044,269.791,178.855,269.791z"/>
</g>
<g>
</g>
<g>
</g>
<g>
</g>
<g>
</g>
<g>
</g>
<g>
</g>
<g>
</g>
<g>
</g>
<g>
</g>
<g>
</g>
<g>
</g>
<g>
</g>
<g>
</g>
<g>
</g>
<g>
</g>
</svg>
