<?xml version="1.0" encoding="iso-8859-1"?>
<!-- Generator: Adobe Illustrator 19.0.0, SVG Export Plug-In . SVG Version: 6.00 Build 0)  -->
<svg version="1.1" id="Layer_1" xmlns="http://www.w3.org/2000/svg" xmlns:xlink="http://www.w3.org/1999/xlink" x="0px" y="0px"
	 viewBox="0 0 512 512" style="enable-background:new 0 0 512 512;" xml:space="preserve">
<circle style="fill:#324A5E;" cx="256" cy="256" r="256"/>
<path style="fill:#2B3B4E;" d="M512,256c0-8.539-0.428-16.977-1.245-25.302L406.233,126.176L242.497,275.249l-136.73,110.573
	L230.7,510.755c8.325,0.817,16.763,1.245,25.302,1.245C397.384,512,512,397.384,512,256z"/>
<polygon style="fill:#B5F1F4;" points="302.63,162.74 209.37,139.424 116.108,162.74 116.108,372.576 209.37,349.26 302.63,372.576 
	395.89,349.26 395.89,139.424 "/>
<path style="fill:#F9B54C;" d="M105.765,385.824v-231.16l103.605-25.9l93.26,23.314l103.605-25.9v231.16l-103.605,25.9
	l-93.26-23.314L105.765,385.824z M209.37,338.599l93.26,23.314l82.918-20.728V152.673l-82.918,20.728l-93.26-23.314l-82.918,20.728
	v188.514L209.37,338.599z"/>
<polygon style="fill:#F4A200;" points="302.63,152.078 256,140.421 256,161.744 302.63,173.401 385.546,152.673 385.546,341.185 
	302.63,361.913 256,350.256 256,371.579 302.63,383.238 406.233,357.336 406.233,126.176 "/>
<polygon style="fill:#FC6F58;" points="209.37,349.26 116.108,372.576 116.108,162.74 209.37,139.424 "/>
<polygon style="fill:#F1543F;" points="395.89,349.26 302.63,372.576 302.63,162.74 395.89,139.424 "/>
<polygon style="fill:#FD8469;" points="302.63,372.576 209.37,349.26 209.37,139.424 302.63,162.74 "/>
<polygon style="fill:#FC6F58;" points="302.63,162.74 256,151.081 256,360.919 302.63,372.576 "/>
<g>
</g>
<g>
</g>
<g>
</g>
<g>
</g>
<g>
</g>
<g>
</g>
<g>
</g>
<g>
</g>
<g>
</g>
<g>
</g>
<g>
</g>
<g>
</g>
<g>
</g>
<g>
</g>
<g>
</g>
</svg>
