<?xml version="1.0" encoding="iso-8859-1"?>
<!-- Generator: Adobe Illustrator 19.0.0, SVG Export Plug-In . SVG Version: 6.00 Build 0)  -->
<svg version="1.1" id="Layer_1" xmlns="http://www.w3.org/2000/svg" xmlns:xlink="http://www.w3.org/1999/xlink" x="0px" y="0px"
	 viewBox="0 0 512 512" style="enable-background:new 0 0 512 512;" xml:space="preserve">
<circle style="fill:#FFD15D;" cx="256" cy="256" r="256"/>
<path style="fill:#F9B54C;" d="M502.486,325.354L295.65,118.519l-76.857,64.071l-60.404,181.953l143.374,143.374
	C398.462,490.465,476.272,418.706,502.486,325.354z"/>
<polygon style="fill:#47677C;" points="295.65,118.519 256,158.168 216.35,118.519 "/>
<g>
	<polygon style="fill:#324A5E;" points="295.65,118.519 255.426,118.519 255.426,157.594 256,158.168 	"/>
	<path style="fill:#324A5E;" d="M139.424,308.191c0-64.383,52.193-163.206,116.576-163.206s116.576,98.823,116.576,163.206
		S320.383,400.377,256,400.377S139.424,372.574,139.424,308.191z"/>
</g>
<path style="fill:#2B3B4E;" d="M256,144.984c-0.191,0-0.381,0.012-0.574,0.014v255.371c0.191,0,0.381,0.009,0.574,0.009
	c64.383,0,116.576-27.803,116.576-92.186C372.576,243.807,320.383,144.984,256,144.984z"/>
<circle style="fill:#47677C;" cx="256" cy="286.599" r="56.889"/>
<path style="fill:#324A5E;" d="M256,229.71c-0.193,0-0.381,0.012-0.574,0.014v113.748c0.191,0.002,0.381,0.014,0.574,0.014
	c31.418,0,56.889-25.471,56.889-56.889S287.418,229.71,256,229.71z"/>
<path style="fill:#FFD15D;" d="M273.553,276.552c2.207,0,3.996-1.789,3.996-3.996v-2.731c0-8.275-7.823-15.02-17.553-15.284v-1.043
	c0-2.207-1.789-3.996-3.996-3.996s-3.996,1.789-3.996,3.996v1.043c-9.73,0.264-17.553,7.009-17.553,15.284v5.461
	c0,8.275,7.823,15.02,17.553,15.282v20.096c-5.239-0.228-9.561-3.47-9.561-7.294v-2.731c0-2.207-1.789-3.996-3.996-3.996
	c-2.207,0-3.996,1.789-3.996,3.996v2.731c0,8.275,7.823,15.02,17.553,15.282v1.045c0,2.207,1.789,3.996,3.996,3.996
	c2.207,0,3.996-1.789,3.996-3.996v-1.045c9.73-0.262,17.553-7.008,17.553-15.282v-5.461c0-8.275-7.823-15.02-17.553-15.284V262.53
	c5.239,0.228,9.561,3.47,9.561,7.294v2.731C269.557,274.763,271.346,276.552,273.553,276.552z M242.443,275.287v-5.461
	c0-3.824,4.322-7.068,9.561-7.294v20.049C246.765,282.353,242.443,279.111,242.443,275.287z M269.557,297.912v5.461
	c0,3.824-4.322,7.066-9.561,7.294v-20.049C265.235,290.844,269.557,294.088,269.557,297.912z"/>
<path style="fill:#F4A200;" d="M273.553,276.552c2.207,0,3.996-1.789,3.996-3.996v-2.731c0-8.275-7.823-15.02-17.553-15.282V253.5
	c0-2.207-1.789-3.996-3.996-3.996c-0.197,0-0.384,0.031-0.574,0.057v74.076c0.188,0.028,0.378,0.059,0.574,0.059
	c2.207,0,3.996-1.789,3.996-3.996v-1.045c9.73-0.262,17.553-7.008,17.553-15.282v-5.461c0-8.275-7.823-15.02-17.553-15.282v-20.096
	c5.239,0.228,9.561,3.47,9.561,7.294v2.731C269.557,274.763,271.346,276.552,273.553,276.552z M269.557,297.912v5.461
	c0,3.824-4.324,7.066-9.561,7.294v-20.049C265.235,290.844,269.557,294.088,269.557,297.912z"/>
<g>
</g>
<g>
</g>
<g>
</g>
<g>
</g>
<g>
</g>
<g>
</g>
<g>
</g>
<g>
</g>
<g>
</g>
<g>
</g>
<g>
</g>
<g>
</g>
<g>
</g>
<g>
</g>
<g>
</g>
</svg>
