<?xml version="1.0" encoding="iso-8859-1"?>
<!-- Generator: Adobe Illustrator 19.0.0, SVG Export Plug-In . SVG Version: 6.00 Build 0)  -->
<svg version="1.1" id="Layer_1" xmlns="http://www.w3.org/2000/svg" xmlns:xlink="http://www.w3.org/1999/xlink" x="0px" y="0px"
	 viewBox="0 0 512 512" style="enable-background:new 0 0 512 512;" xml:space="preserve">
<circle style="fill:#FC6F58;" cx="256" cy="256" r="256"/>
<path style="fill:#F1543F;" d="M507.797,302.383L316.783,111.369l-116.234,8.442v184.746L159.01,405.335l106.472,106.472
	C386.772,507.389,486.524,418.607,507.797,302.383z"/>
<path style="fill:#FFD15D;" d="M282.145,330.128h-52.291c-26.457,0-47.981-21.525-47.981-47.983V144.522
	c0-26.459,21.525-47.983,47.981-47.983h52.291c26.458,0,47.983,21.525,47.983,47.983v137.623
	C330.128,308.603,308.603,330.128,282.145,330.128z M229.854,131.017c-7.446,0-13.503,6.06-13.503,13.505v137.623
	c0,7.446,6.058,13.505,13.503,13.505h52.291c7.446,0,13.505-6.06,13.505-13.505V144.522c0-7.446-6.06-13.505-13.505-13.505H229.854z
	"/>
<path style="fill:#F9B54C;" d="M282.145,96.539h-26.719v34.478h26.719c7.446,0,13.505,6.06,13.505,13.505v137.623
	c0,7.446-6.06,13.505-13.505,13.505h-26.719v34.478h26.719c26.459,0,47.983-21.525,47.983-47.983V144.522
	C330.128,118.063,308.603,96.539,282.145,96.539z"/>
<path style="fill:#4A6475;" d="M331.481,414.199H180.521c-16.867,0-30.539-13.672-30.539-30.539V270.564
	c0-16.867,13.672-30.539,30.539-30.539h150.961c16.867,0,30.539,13.672,30.539,30.539V383.66
	C362.02,400.525,348.348,414.199,331.481,414.199z"/>
<g>
	<path style="fill:#324A5E;" d="M331.481,240.023h-76.055v174.177h76.055c16.867,0,30.539-13.672,30.539-30.541V270.562
		C362.02,253.697,348.348,240.023,331.481,240.023z"/>
	<path style="fill:#324A5E;" d="M280.135,321.939c0-13.329-10.805-24.135-24.135-24.135c-13.329,0-24.135,10.805-24.135,24.135
		c0,8.004,3.913,15.077,9.912,19.468v10.269c0,7.854,6.368,14.222,14.222,14.222c7.854,0,14.222-6.368,14.222-14.222v-10.269
		C276.221,337.017,280.135,329.943,280.135,321.939z"/>
</g>
<path style="fill:#1E2D3D;" d="M256,297.805c-0.193,0-0.381,0.024-0.574,0.029v68.036c0.191,0.007,0.381,0.029,0.574,0.029
	c7.854,0,14.222-6.368,14.222-14.222v-10.269c5.999-4.391,9.912-11.464,9.912-19.468C280.135,308.61,269.329,297.805,256,297.805z"
	/>
<g>
</g>
<g>
</g>
<g>
</g>
<g>
</g>
<g>
</g>
<g>
</g>
<g>
</g>
<g>
</g>
<g>
</g>
<g>
</g>
<g>
</g>
<g>
</g>
<g>
</g>
<g>
</g>
<g>
</g>
</svg>
