<?xml version="1.0" encoding="iso-8859-1"?>
<!-- Generator: Adobe Illustrator 19.0.0, SVG Export Plug-In . SVG Version: 6.00 Build 0)  -->
<svg version="1.1" id="Layer_1" xmlns="http://www.w3.org/2000/svg" xmlns:xlink="http://www.w3.org/1999/xlink" x="0px" y="0px"
	 viewBox="0 0 512 512" style="enable-background:new 0 0 512 512;" xml:space="preserve">
<circle style="fill:#E15050;" cx="256" cy="256" r="256"/>
<path style="fill:#D24146;" d="M291.525,509.535c113.009-15.691,202.411-105.139,218.033-218.169l-122.64-122.64l-1.664,7.073
	l-33.577-33.577l-30.168,72.404L123.323,341.333L291.525,509.535z"/>
<rect x="294.788" y="142.222" style="fill:#2B3B4E;" width="56.889" height="28.444"/>
<path style="fill:#B5F1F4;" d="M357.998,355.556H154.003c-22.216,0-40.226-18.01-40.226-40.224V196.67
	c0-22.216,18.01-40.226,40.226-40.226h203.995c22.216,0,40.224,18.01,40.224,40.226v118.662
	C398.222,337.546,380.213,355.556,357.998,355.556z"/>
<path style="fill:#84DBFF;" d="M357.998,156.444H255.426v199.111h102.572c22.216,0,40.224-18.01,40.224-40.224V196.67
	C398.222,174.454,380.213,156.444,357.998,156.444z"/>
<rect x="113.778" y="199.111" style="fill:#3E5768;" width="284.444" height="113.778"/>
<g>
	<rect x="255.431" y="199.111" style="fill:#324A5E;" width="142.791" height="113.778"/>
	<circle style="fill:#324A5E;" cx="218.074" cy="256" r="85.333"/>
</g>
<path style="fill:#2B3B4E;" d="M218.074,170.667c-0.193,0-0.381,0.014-0.574,0.014v170.637c0.193,0,0.381,0.014,0.574,0.014
	c47.128,0,85.333-38.205,85.333-85.333S265.202,170.667,218.074,170.667z"/>
<circle style="fill:#B5F1F4;" cx="218.074" cy="256" r="62.061"/>
<path style="fill:#84DBFF;" d="M218.074,193.939c-0.193,0-0.383,0.012-0.574,0.014v124.092c0.191,0.002,0.381,0.014,0.574,0.014
	c34.275,0,62.061-27.786,62.061-62.061S252.349,193.939,218.074,193.939z"/>
<rect x="369.778" y="227.556" style="fill:#4CDBC4;" width="28.444" height="56.889"/>
<g>
</g>
<g>
</g>
<g>
</g>
<g>
</g>
<g>
</g>
<g>
</g>
<g>
</g>
<g>
</g>
<g>
</g>
<g>
</g>
<g>
</g>
<g>
</g>
<g>
</g>
<g>
</g>
<g>
</g>
</svg>
