<?xml version="1.0" encoding="iso-8859-1"?>
<!-- Generator: Adobe Illustrator 19.0.0, SVG Export Plug-In . SVG Version: 6.00 Build 0)  -->
<svg version="1.1" id="Layer_1" xmlns="http://www.w3.org/2000/svg" xmlns:xlink="http://www.w3.org/1999/xlink" x="0px" y="0px"
	 viewBox="0 0 512 512" style="enable-background:new 0 0 512 512;" xml:space="preserve">
<circle style="fill:#CFDBE6;" cx="256" cy="256" r="256"/>
<path style="fill:#B8C9D9;" d="M509.88,289.056L359.695,138.871L227.845,246.232L152.5,373.303L289.075,509.88
	C404.013,495.051,495.061,403.997,509.88,289.056z"/>
<circle style="fill:#324A5E;" cx="256" cy="256" r="156.444"/>
<path style="fill:#2B3B4E;" d="M256,99.556c-0.479,0-0.957,0.014-1.436,0.017v312.854c0.479,0.003,0.955,0.017,1.436,0.017
	c86.402,0,156.444-70.042,156.444-156.444S342.402,99.556,256,99.556z"/>
<path style="fill:#F9B54C;" d="M256,99.556v156.42l115.307-105.698C342.709,119.103,301.639,99.556,256,99.556z"/>
<path style="fill:#F1543F;" d="M99.556,256c0-86.402,70.042-156.444,156.444-156.444V256H99.556z"/>
<g>
</g>
<g>
</g>
<g>
</g>
<g>
</g>
<g>
</g>
<g>
</g>
<g>
</g>
<g>
</g>
<g>
</g>
<g>
</g>
<g>
</g>
<g>
</g>
<g>
</g>
<g>
</g>
<g>
</g>
</svg>
