<?xml version="1.0" encoding="iso-8859-1"?>
<!-- Generator: Adobe Illustrator 19.0.0, SVG Export Plug-In . SVG Version: 6.00 Build 0)  -->
<svg version="1.1" id="Layer_1" xmlns="http://www.w3.org/2000/svg" xmlns:xlink="http://www.w3.org/1999/xlink" x="0px" y="0px"
	 viewBox="0 0 512 512" style="enable-background:new 0 0 512 512;" xml:space="preserve">
<circle style="fill:#FC6F58;" cx="256" cy="256" r="256"/>
<path style="fill:#F1543F;" d="M256,512c141.384,0,256-114.616,256-256l0,0l-85.333-85.333L179.502,204.21l-94.168,80.234
	l90.691,90.691l-33.802,23.087L256,512z"/>
<rect x="142.222" y="142.222" style="fill:#FFFFFF;" width="227.556" height="256"/>
<rect x="256" y="142.222" style="fill:#E6F3FF;" width="113.778" height="256"/>
<path style="fill:#CFDBE6;" d="M312.889,142.222c0,31.418-25.471,56.889-56.889,56.889s-56.889-25.471-56.889-56.889H312.889z"/>
<path style="fill:#B8C9D9;" d="M312.889,142.222H256v56.889C287.42,199.111,312.889,173.64,312.889,142.222z"/>
<polygon style="fill:#CFDBE6;" points="85.333,284.444 142.222,256 142.222,142.222 85.333,170.667 "/>
<g>
	<polygon style="fill:#B8C9D9;" points="369.778,256 426.667,284.444 426.667,170.667 369.778,142.222 	"/>
	<rect x="284.444" y="227.556" style="fill:#B8C9D9;" width="56.889" height="56.889"/>
</g>
<g>
</g>
<g>
</g>
<g>
</g>
<g>
</g>
<g>
</g>
<g>
</g>
<g>
</g>
<g>
</g>
<g>
</g>
<g>
</g>
<g>
</g>
<g>
</g>
<g>
</g>
<g>
</g>
<g>
</g>
</svg>
