<?xml version="1.0" encoding="iso-8859-1"?>
<!-- Generator: Adobe Illustrator 19.0.0, SVG Export Plug-In . SVG Version: 6.00 Build 0)  -->
<svg version="1.1" id="Layer_1" xmlns="http://www.w3.org/2000/svg" xmlns:xlink="http://www.w3.org/1999/xlink" x="0px" y="0px"
	 viewBox="0 0 512 512" style="enable-background:new 0 0 512 512;" xml:space="preserve">
<circle style="fill:#68533E;" cx="256" cy="256" r="256"/>
<path style="fill:#57442F;" d="M511.995,256.384L405.354,149.744L380.48,183.11l-67.405-67.405H200.549v22.781l-92.081,225.463
	l148.046,148.044C397.533,511.716,511.788,397.421,511.995,256.384z"/>
<path style="fill:#FFD15D;" d="M387.52,369.778H124.482c-13.765,0-24.924-11.159-24.924-24.924V167.148
	c0-13.765,11.159-24.926,24.924-24.926H387.52c13.765,0,24.924,11.159,24.924,24.926v177.705
	C412.444,358.619,401.286,369.778,387.52,369.778z"/>
<path style="fill:#F9B54C;" d="M387.52,142.222H256.288v227.556H387.52c13.765,0,24.924-11.159,24.924-24.924V167.146
	C412.444,153.381,401.286,142.222,387.52,142.222z"/>
<path style="fill:#FFD15D;" d="M295.505,176.7h-79.012c-12.91,0-23.416-10.505-23.416-23.418v-22.121
	c0-12.912,10.505-23.418,23.416-23.418h79.012c12.912,0,23.418,10.505,23.418,23.418v22.121
	C318.923,166.195,308.417,176.7,295.505,176.7z M216.493,119.811c-6.258,0-11.348,5.091-11.348,11.35v22.121
	c0,6.26,5.091,11.35,11.348,11.35h79.012c6.26,0,11.35-5.091,11.35-11.35v-22.121c0-6.259-5.091-11.35-11.35-11.35H216.493z"/>
<path style="fill:#F9B54C;" d="M295.505,107.744h-39.217v12.067h39.217c6.259,0,11.35,5.091,11.35,11.35v22.121
	c0,6.26-5.091,11.35-11.35,11.35h-39.217V176.7h39.217c12.912,0,23.418-10.505,23.418-23.418v-22.121
	C318.923,118.25,308.417,107.744,295.505,107.744z"/>
<path style="fill:#B97850;" d="M412.444,167.146c0-13.765-11.159-24.924-24.924-24.924H124.482
	c-13.765,0-24.924,11.159-24.924,24.924v64.719h312.889v-64.719H412.444z"/>
<path style="fill:#935635;" d="M412.444,167.146c0-13.765-11.159-24.924-24.924-24.924H256.288v89.643h156.157V167.146z"/>
<rect x="142.222" y="206.869" style="fill:#F9DCA2;" width="28.444" height="41.374"/>
<rect x="341.333" y="206.869" style="fill:#FFD15D;" width="28.444" height="41.374"/>
<path style="fill:#B97850;" d="M281.5,341.333h-50.998c-9.481,0-17.167-7.687-17.167-17.167V256h85.333v68.167
	C298.667,333.646,290.98,341.333,281.5,341.333z"/>
<path style="fill:#935635;" d="M256.288,256v85.333H281.5c9.481,0,17.167-7.685,17.167-17.167V256H256.288z"/>
<g>
</g>
<g>
</g>
<g>
</g>
<g>
</g>
<g>
</g>
<g>
</g>
<g>
</g>
<g>
</g>
<g>
</g>
<g>
</g>
<g>
</g>
<g>
</g>
<g>
</g>
<g>
</g>
<g>
</g>
</svg>
