<?xml version="1.0" encoding="iso-8859-1"?>
<!-- Generator: Adobe Illustrator 19.0.0, SVG Export Plug-In . SVG Version: 6.00 Build 0)  -->
<svg version="1.1" id="Layer_1" xmlns="http://www.w3.org/2000/svg" xmlns:xlink="http://www.w3.org/1999/xlink" x="0px" y="0px"
	 viewBox="0 0 512 512" style="enable-background:new 0 0 512 512;" xml:space="preserve">
<circle style="fill:#FC6F58;" cx="256" cy="256" r="256"/>
<path style="fill:#F1543F;" d="M511.728,267.574L364.544,120.391L197.806,324.836l-49.612,67.515l119.78,119.363
	C399.962,505.634,505.851,399.615,511.728,267.574z"/>
<path style="fill:#47677C;" d="M349.665,398.222H162.333c-11.107,0-20.113-9.004-20.113-20.113V133.889
	c0.002-11.107,9.006-20.111,20.113-20.111h187.332c11.107,0,20.113,9.004,20.113,20.111v244.221
	C369.778,389.218,360.774,398.222,349.665,398.222z"/>
<path style="fill:#4A6475;" d="M349.665,113.778h-94.241v284.444h94.241c11.107,0,20.113-9.004,20.113-20.113V133.891
	C369.778,122.782,360.774,113.778,349.665,113.778z"/>
<rect x="159.461" y="131.31" style="fill:#324A5E;" width="193.077" height="225.263"/>
<rect x="255.431" y="131.31" style="fill:#2B3B4E;" width="97.108" height="225.263"/>
<circle style="fill:#324A5E;" cx="256" cy="374.949" r="9.481"/>
<path style="fill:#2B3B4E;" d="M256,365.468c-0.193,0-0.383,0.017-0.574,0.029v18.904c0.191,0.012,0.381,0.029,0.574,0.029
	c5.237,0,9.481-4.244,9.481-9.481S261.236,365.468,256,365.468z"/>
<rect x="174.114" y="152.859" style="fill:#FFD15D;" width="163.771" height="54.591"/>
<rect x="255.431" y="152.859" style="fill:#F9B54C;" width="82.46" height="54.591"/>
<rect x="235.52" y="223.591" style="fill:#E6F3FF;" width="102.366" height="64.819"/>
<rect x="255.431" y="223.591" style="fill:#CFDBE6;" width="82.46" height="64.819"/>
<rect x="174.114" y="223.591" style="fill:#E6F3FF;" width="49.223" height="64.819"/>
<g>
</g>
<g>
</g>
<g>
</g>
<g>
</g>
<g>
</g>
<g>
</g>
<g>
</g>
<g>
</g>
<g>
</g>
<g>
</g>
<g>
</g>
<g>
</g>
<g>
</g>
<g>
</g>
<g>
</g>
</svg>
