<?xml version="1.0" encoding="iso-8859-1"?>
<!-- Generator: Adobe Illustrator 19.0.0, SVG Export Plug-In . SVG Version: 6.00 Build 0)  -->
<svg version="1.1" id="Layer_1" xmlns="http://www.w3.org/2000/svg" xmlns:xlink="http://www.w3.org/1999/xlink" x="0px" y="0px"
	 viewBox="0 0 512 512" style="enable-background:new 0 0 512 512;" xml:space="preserve">
<circle style="fill:#FC6F58;" cx="256" cy="256" r="256"/>
<path style="fill:#F1543F;" d="M511.729,267.524L363.751,119.546L236.246,271.875l-89.571,118.843l121.006,121.006
	C399.822,505.787,505.873,399.684,511.729,267.524z"/>
<path style="fill:#47677C;" d="M349.665,398.222H162.333c-11.107,0-20.113-9.004-20.113-20.113V133.889
	c0.002-11.107,9.006-20.111,20.113-20.111h187.332c11.107,0,20.113,9.004,20.113,20.111v244.221
	C369.778,389.218,360.774,398.222,349.665,398.222z"/>
<path style="fill:#4A6475;" d="M349.665,113.778H254.85v284.444h94.815c11.107,0,20.113-9.004,20.113-20.113V133.891
	C369.778,122.782,360.774,113.778,349.665,113.778z"/>
<rect x="159.461" y="131.31" style="fill:#324A5E;" width="193.077" height="225.263"/>
<rect x="254.845" y="131.31" style="fill:#2B3B4E;" width="97.689" height="225.263"/>
<circle style="fill:#272525;" cx="256" cy="374.949" r="9.481"/>
<path style="fill:#FFD15D;" d="M403.378,339.177c-4.929,0-9.373,2.045-12.553,5.323v-0.809c0-9.664-7.833-17.498-17.498-17.498
	c-4.929,0-9.373,2.045-12.553,5.323v-1.129c0-9.664-7.833-17.498-17.498-17.498c-6.527,0-12.207,3.581-15.215,8.876v-48.269
	c0-9.664-7.833-17.498-17.498-17.498c-9.664,0-17.499,7.833-17.499,17.498V390.73l-4.33-18.025
	c-3.048-10.102-13.708-15.819-23.809-12.771s-15.819,13.708-12.771,23.809l30.479,126.883
	c52.388-5.415,100.078-26.638,138.243-58.806v-95.146C420.876,347.01,413.043,339.177,403.378,339.177z"/>
<path style="fill:#F9B54C;" d="M420.876,356.674c0-9.664-7.833-17.498-17.498-17.498c-4.929,0-9.373,2.045-12.553,5.323v-0.809
	c0-9.664-7.833-17.498-17.498-17.498c-4.929,0-9.373,2.045-12.553,5.323v-1.129c0-1.783-0.271-3.5-0.765-5.12v164.666
	c22.114-9.85,42.593-22.709,60.868-38.112L420.876,356.674L420.876,356.674z"/>
<path style="fill:#90DFAA;" d="M298.667,240.916h-85.333c-7.854,0-14.222-6.368-14.222-14.222l0,0
	c0-7.854,6.368-14.222,14.222-14.222h85.333c7.854,0,14.222,6.368,14.222,14.222l0,0
	C312.889,234.548,306.521,240.916,298.667,240.916z"/>
<path style="fill:#4CDBC4;" d="M298.667,212.471H254.85v28.444h43.816c7.854,0,14.222-6.368,14.222-14.222
	C312.889,218.839,306.521,212.471,298.667,212.471z"/>
<g>
</g>
<g>
</g>
<g>
</g>
<g>
</g>
<g>
</g>
<g>
</g>
<g>
</g>
<g>
</g>
<g>
</g>
<g>
</g>
<g>
</g>
<g>
</g>
<g>
</g>
<g>
</g>
<g>
</g>
</svg>
