<?xml version="1.0" encoding="iso-8859-1"?>
<!-- Generator: Adobe Illustrator 19.0.0, SVG Export Plug-In . SVG Version: 6.00 Build 0)  -->
<svg version="1.1" id="Layer_1" xmlns="http://www.w3.org/2000/svg" xmlns:xlink="http://www.w3.org/1999/xlink" x="0px" y="0px"
	 viewBox="0 0 512 512" style="enable-background:new 0 0 512 512;" xml:space="preserve">
<circle style="fill:#B5F1F4;" cx="256" cy="256" r="256"/>
<path style="fill:#84DBFF;" d="M511.597,270.272L375.236,133.911L227.842,291.054l-80.534,96.53l123.951,123.951
	C400.818,503.917,504.47,399.962,511.597,270.272z"/>
<circle style="fill:#FC6F58;" cx="256" cy="256" r="170.667"/>
<path style="fill:#F1543F;" d="M426.667,256c0-94.256-76.41-170.667-170.667-170.667v341.333
	C350.256,426.667,426.667,350.256,426.667,256z"/>
<circle style="fill:#E6F3FF;" cx="256" cy="256" r="142.222"/>
<path style="fill:#CFDBE6;" d="M398.222,256c0-78.546-63.674-142.222-142.222-142.222v284.444
	C334.546,398.222,398.222,334.546,398.222,256z"/>
<circle style="fill:#FC6F58;" cx="256" cy="256" r="113.778"/>
<path style="fill:#F1543F;" d="M369.776,256c0-62.838-50.938-113.778-113.776-113.78V369.78
	C318.838,369.778,369.776,318.838,369.776,256z"/>
<circle style="fill:#E6F3FF;" cx="256" cy="256" r="85.333"/>
<path style="fill:#CFDBE6;" d="M341.332,255.997c0-47.128-38.203-85.332-85.332-85.332v170.667
	C303.128,341.33,341.332,303.125,341.332,255.997z"/>
<circle style="fill:#FC6F58;" cx="256" cy="256" r="56.889"/>
<path style="fill:#F1543F;" d="M312.887,255.998c0-31.418-25.469-56.887-56.887-56.887v113.778
	C287.418,312.887,312.887,287.416,312.887,255.998z"/>
<path style="fill:#324A5E;" d="M398.222,411.152c-3.308,0-6.618-1.262-9.144-3.786L246.856,265.144
	c-5.049-5.051-5.049-13.236,0-18.285c5.051-5.048,13.236-5.048,18.285,0L407.364,389.08c5.049,5.051,5.049,13.236,0,18.285
	C404.84,409.89,401.53,411.152,398.222,411.152z"/>
<g>
</g>
<g>
</g>
<g>
</g>
<g>
</g>
<g>
</g>
<g>
</g>
<g>
</g>
<g>
</g>
<g>
</g>
<g>
</g>
<g>
</g>
<g>
</g>
<g>
</g>
<g>
</g>
<g>
</g>
</svg>
